<?xml version="1.0" encoding="utf-8"?>
<!-- Generator: Adobe Illustrator 25.4.1, SVG Export Plug-In . SVG Version: 6.00 Build 0)  -->
<svg version="1.1" id="Layer_1" xmlns="http://www.w3.org/2000/svg" xmlns:xlink="http://www.w3.org/1999/xlink" x="0px" y="0px"
	 viewBox="0 0 348 104" style="enable-background:new 0 0 348 104;" xml:space="preserve">
<style type="text/css">
	.st0{display:none;}
	.st1{display:inline;fill:#CE9A33;}
	.st2{display:inline;}
	.st3{fill:#CE9A33;}
	.st4{display:none;fill:none;stroke:#CC9930;stroke-width:0.3598;stroke-miterlimit:10;}
	.st5{fill:#FFFFFF;}
	.st6{fill:#CE992C;}
	.st7{fill:#59595C;}
	.st8{fill:#231F20;}
</style>
<g class="st0">
	<path class="st1" d="M314.9,234.5l10.1-7.7c2.5-2,3.5-3.2,3.5-4.8c0-1.7-1.2-2.8-3-2.8s-3.2,1.1-5.3,3.5l-5-4.2
		c2.9-3.7,5.8-5.8,10.9-5.8c5.9,0,9.9,3.5,9.9,8.6v0.1c0,4.3-2.2,6.5-6.2,9.4l-4.6,3.2h11.1v6.1h-21.4V234.5z"/>
	<path class="st1" d="M336.8,236.4l4.3-5c2.1,1.8,4.2,2.9,6.5,2.9c2.5,0,3.9-1.2,3.9-3.1v-0.1c0-2-1.6-3.1-4-3.1
		c-1.7,0-3,0.6-4.3,1.3l-4.4-2.5l0.8-13.6h18v6.1h-12.1l-0.2,4.1c1.2-0.6,2.5-1,4.3-1c4.8,0,9.2,2.7,9.2,8.5v0.1
		c0,5.9-4.6,9.6-11.1,9.6C342.9,240.6,339.6,239,336.8,236.4z"/>
	<path class="st1" d="M370.1,213.2h7.4v10.1h9.6v-10.1h7.4v26.9h-7.4v-10.2h-9.6v10.2h-7.4V213.2z"/>
	<path class="st1" d="M427.9,228.3v-15.1h7.5v14.9c0,3.9,2,5.7,5,5.7s5-1.8,5-5.5v-15.1h7.5v14.9c0,8.6-5,12.5-12.6,12.5
		S427.9,236.7,427.9,228.3z"/>
	<path class="st1" d="M455.7,213.2h12.7c4.1,0,6.9,1.1,8.7,2.9c1.6,1.6,2.4,3.6,2.4,6.3v0.1c0,4.1-2.2,6.9-5.5,8.3l6.4,9.4h-8.6
		l-5.4-8.1h-3.3v8.1h-7.4L455.7,213.2L455.7,213.2z M468.1,226.1c2.5,0,4-1.2,4-3.2v-0.1c0-2.1-1.6-3.2-4-3.2h-4.9v6.5H468.1z"/>
	<path class="st1" d="M490.9,213.2h7.4v20.3h13v6.5h-20.5v-26.8H490.9z"/>
	<path class="st1" d="M513.2,213.2h7.4v26.9h-7.4V213.2z"/>
	<path class="st1" d="M524,213.2h21.5v6.5h-14v4.6h12.7v6.2h-12.7v9.6h-7.4L524,213.2L524,213.2z"/>
	<path class="st1" d="M547.4,213.2H569v6.3h-14.2v4.1h12.9v5.9h-12.9v4.3h14.4v6.3h-21.8V213.2z"/>
	<g class="st2">
		<path class="st3" d="M396.7,227L396.7,227c0-8.1,6.4-14.6,15-14.6s15,6.4,15,14.4v0.1c0,8-6.4,14.5-15,14.5
			C403,241.4,396.7,235,396.7,227z M421.5,227v-0.1c0-5.2-4-9.6-9.9-9.6s-9.8,4.4-9.8,9.5v0.1c0,5.1,4,9.6,10,9.6
			C417.6,236.5,421.5,232.1,421.5,227z"/>
		<rect x="411.3" y="216.5" class="st3" width="0.6" height="3.9"/>
		<rect x="411.3" y="233.4" class="st3" width="0.6" height="3.9"/>
		<rect x="401.2" y="226.7" class="st3" width="3.9" height="0.6"/>
		<rect x="418.1" y="226.6" class="st3" width="3.9" height="0.6"/>
		<g>
			
				<rect x="409.5" y="224.7" transform="matrix(0.7071 -0.7071 0.7071 0.7071 -37.7703 358.4425)" class="st3" width="8.6" height="0.3"/>
			
				<rect x="410.6" y="223.7" transform="matrix(0.7071 -0.7071 0.7071 0.7071 -39.4755 356.6505)" class="st3" width="0.3" height="4.5"/>
			<path class="st3" d="M411.3,226.9c0,0.3,0.2,0.5,0.5,0.5s0.5-0.2,0.5-0.5s-0.2-0.5-0.5-0.5S411.3,226.6,411.3,226.9z"/>
		</g>
	</g>
</g>
<line class="st4" x1="314.9" y1="250" x2="569.2" y2="250"/>
<text transform="matrix(1 0 0 1 178.1977 189.3952)" style="display:none;fill:#59595C;enable-background:new    ; font-family:'Poppins-Regular'; font-size:20.4397px;">Manpada</text>
<g>
	<g>
		<path class="st5" d="M60,14.3H14.3c-2.7,0-4.9,2.2-4.9,4.9v65.7c0,2.7,2.2,4.9,4.9,4.9H60c2.7,0,4.9-2.2,4.9-4.9V19.1
			C64.8,16.5,62.7,14.3,60,14.3"/>
		<path class="st6" d="M16.8,68h0.3c0.3,0,0.6,0,0.8-0.1c0.1-0.1,0.2-0.3,0.2-0.5c0-0.1,0-0.3-0.1-0.3s-0.2-0.2-0.3-0.2
			c-0.1,0-0.3-0.1-0.6-0.1h-0.3V68 M15.6,65.6h1.1c0.7,0,1.1,0.1,1.4,0.2s0.5,0.3,0.7,0.6c0.2,0.3,0.3,0.6,0.3,0.9S19,68,18.8,68.2
			c-0.2,0.3-0.5,0.5-0.9,0.6l1.5,2.6h-1.2L16.9,69h-0.1v2.5h-1.1L15.6,65.6L15.6,65.6z"/>
		<path class="st6" d="M22.2,65.6h1.1v3.7c0,0.3,0,0.6,0.1,0.7s0.2,0.3,0.3,0.3c0.1,0.1,0.3,0.1,0.5,0.1c0.1,0,0.3,0,0.5-0.1
			c0.1-0.1,0.3-0.2,0.3-0.3c0.1-0.1,0.1-0.3,0.1-0.8v-3.6h1.1v3.5c0,0.6,0,0.9-0.1,1.2c-0.1,0.2-0.2,0.5-0.3,0.7
			c-0.2,0.2-0.3,0.3-0.7,0.5c-0.2,0.1-0.5,0.2-0.9,0.2c-0.5,0-0.8-0.1-1.1-0.3c-0.3-0.2-0.6-0.5-0.7-0.8s-0.2-0.8-0.2-1.5L22.2,65.6
			"/>
		<polygon class="st6" points="29.5,65.6 30.5,65.6 33,69.6 33,65.6 34.1,65.6 34.1,71.5 33,71.5 30.6,67.8 30.6,71.5 29.5,71.5 		
			"/>
		<polygon class="st6" points="36.9,65.6 38.1,65.6 38.9,69.5 39.9,65.6 40.9,65.6 41.9,69.5 42.7,65.6 43.7,65.6 42.5,71.5 
			41.5,71.5 40.3,67.8 39.3,71.5 38.3,71.5 		"/>
		<path class="st6" d="M49,67.3l-0.8,2h1.5L49,67.3z M48.4,65.6h1.1l2.3,5.8h-1.1l-0.5-1.2h-2.4l-0.5,1.2h-1.1L48.4,65.6z"/>
		<polygon class="st6" points="54.6,65.6 55.6,65.6 55.6,70.5 57.3,70.5 57.3,71.5 54.6,71.5 		"/>
		<path class="st6" d="M52.7,78.2H20.5c-1.8,0-3.2-1.5-3.3-3.2h38.6C55.8,76.8,54.4,78.2,52.7,78.2 M55.9,74.1H17.2l0,0h-1.4v3.7
			c0,2,1.6,3.6,3.5,3.6h34.4c2,0,3.5-1.6,3.5-3.6v-3.7H55.9L55.9,74.1z M55.9,61.7H17.2V24.6c0-1.8,1.5-3.3,3.3-3.3h32.1
			c1.8,0,3.3,1.5,3.3,3.3L55.9,61.7L55.9,61.7z M53.8,18.1H19.4c-2,0-3.5,1.6-3.5,3.6v41.1h1.5l0,0H56l0,0h1.5V21.7
			C57.3,19.7,55.8,18.1,53.8,18.1"/>
		<path class="st6" d="M50.7,39.5c-2.5,3.9-7.7,3.2-7.7,3.2s1.4-4.3,2.8-8.6c0.9-2.6,4-4.5,4-4.5S54.9,33.1,50.7,39.5 M41,37.3
			c-1.7,3.2-4.1,9.7-5.7,12.7s-6.1,6.7-11.1,6.5c-5-0.3-12.2-3.6-11.3-12.5c1-10.2,9.9-13.3,13.1-13.4c3.5-0.3,4.9,0.5,4.9,0.5
			s-1.2,2.2-1.6,3.9c-0.3,1.5-0.7,4.8,1.1,6.7c2.4,2.6,6.6,1.1,6.6,1.1s-0.9,3.6-2.8,5.8c-1.4,1.5-3.9,4.3-8.5,4.3
			c-6.6,0-9-5.6-9.3-6.6s-0.5-0.7-0.2,0c0.2,0.7,2.6,6.8,9.4,6.7c9.6,0.1,11.9-10.3,11.9-10.3s0.5-0.3,0.9-0.8
			c0.5-0.5,0.8-0.9,0.8-1.5c0-0.8-0.3-0.9-0.3-0.1c-0.1,1-1.2,1.7-1.2,1.7s0.7-3.7-1.4-6.8c-2-3.2-4.8-4.2-4.8-4.2s2.5-4.3,9.4-4.4
			c4.9-0.1,8.3,2.5,8.3,2.5s-1.9,1.1-3.1,2C45.2,31.9,42.7,34.2,41,37.3 M31.3,31.4c0,0,3.1,1.5,4.9,4.6c1.9,3.2,0.9,6.1,0.9,6.1
			s-4.8,2-6.9-1.5c-1.5-2.5-0.5-5.9-0.1-6.9C30.6,32.6,31.3,31.4,31.3,31.4 M59.6,27.5c-0.3-0.1-0.6-0.2-0.8-0.2l0,0
			c-0.7-0.1-1.5-0.2-2.2-0.2C52.5,27,50,28.7,50,28.7s-4.5-2.9-10.1-2.6c-6.6,0.6-8.8,4.6-8.8,4.6s-4.9-1.7-10,0.9s-8.4,7-8.4,13.9
			c0,6,4.5,11,12,11.1c5,0.1,13.4-2.6,15.4-7.1c0.9-2,2.6-6,2.6-6s2.3,1.1,1.9,3.6c-0.2,1.5-0.7,4.2-0.1,6.2c0.7,2,3.4,3.5,6,3.4
			c2.6-0.2,4.6-1.1,5.2-3.4c0.6-2.3-1.1-4.3-1.5-4.9c-0.3-0.7-0.9-0.3-0.5,0.2c0.3,0.6,1.5,2.3,1.5,3.7c0,1.5-1,3.2-2.8,3.6
			c-1.7,0.3-3.3-0.5-4-1.6s-0.2-6.1-0.6-7.5c-0.3-1.4-2.6-3.2-2.6-3.2s8.4-0.6,9.7-6.3c1.1-5-4.3-8.3-4.3-8.3s2.2-1.8,6-1.8
			c0.5,0,1,0,1.5,0.1c0.8,0.1,1.4,0.3,1.7,0.5c1.4,0.7,1.5,1.6,1.4,2.3c-0.1,0.7-0.5,0.9-0.7,1c-0.7,0.3-1.1,0.3-1.5,0.3
			c-0.2,0-0.3-0.2-0.5-0.1l0,0c0,0.1,0,0.1,0.3,0.3c0.3,0.2,1.1,0.3,1.6,0c0.3-0.1,0.9-0.7,0.9-1.6C61.8,29.2,61.5,28.2,59.6,27.5
			 M57.9,27.5L57.9,27.5L57.9,27.5L57.9,27.5L57.9,27.5z"/>
		<path class="st7" d="M41.7,76.9c0,0.1,0,0.1,0,0.2s0.1,0.1,0.1,0.1c0.1,0,0.1,0,0.2,0s0.2,0,0.3-0.1s0.1-0.2,0.1-0.3
			s0-0.2-0.1-0.3c-0.1-0.1-0.2-0.1-0.3-0.1s-0.2,0-0.3,0.1C41.8,76.8,41.7,76.9,41.7,76.9 M41.8,76.2c0,0.1,0,0.2,0.1,0.2
			c0.1,0.1,0.1,0.1,0.2,0.1s0.2,0,0.2-0.1c0.1-0.1,0.1-0.1,0.1-0.2s0-0.2-0.1-0.2c-0.1-0.1-0.1-0.1-0.2-0.1s-0.2,0-0.2,0.1
			C41.8,76,41.8,76.1,41.8,76.2 M41.9,76.6c-0.1,0-0.2-0.1-0.2-0.2s-0.1-0.1-0.1-0.2s0-0.3,0.1-0.3s0.2,0,0.3,0s0.3,0.1,0.3,0.1
			c0.1,0.1,0.1,0.2,0.1,0.3c0,0.1,0,0.2-0.1,0.2c0,0.1-0.1,0.1-0.2,0.2c0.1,0,0.2,0.1,0.3,0.2s0.1,0.2,0.1,0.3
			c0,0.2-0.1,0.3-0.2,0.3c0,0.1-0.2,0.1-0.3,0.1s-0.3-0.1-0.5-0.2c-0.1-0.1-0.2-0.2-0.2-0.3c0-0.1,0-0.2,0.1-0.3
			C41.7,76.7,41.7,76.6,41.9,76.6 M40.2,75.9L40.2,75.9l1.1-0.1V76c-0.1,0.1-0.2,0.3-0.3,0.5s-0.2,0.3-0.3,0.7
			c-0.1,0.2-0.1,0.3-0.1,0.5h-0.2c0-0.2,0-0.3,0.1-0.5s0.1-0.3,0.2-0.6c0.1-0.2,0.2-0.3,0.3-0.5L40.2,75.9L40.2,75.9z M39.8,76.4
			c0-0.1,0-0.2-0.1-0.3C39.6,76,39.5,76,39.4,76s-0.2,0-0.3,0.1S39,76.3,39,76.4c0,0.1,0,0.2,0.1,0.3c0.1,0.1,0.2,0.1,0.3,0.1
			s0.2,0,0.3-0.1C39.7,76.6,39.8,76.5,39.8,76.4 M38.8,77.2H39c0,0.1,0,0.2,0.1,0.2s0.1,0.1,0.2,0.1c0.1,0,0.1,0,0.2,0
			c0.1,0,0.1-0.1,0.1-0.1c0-0.1,0.1-0.1,0.1-0.2s0-0.2,0-0.3l0,0c0,0.1-0.1,0.1-0.2,0.2c-0.1,0.1-0.2,0.1-0.3,0.1
			c-0.2,0-0.3-0.1-0.3-0.2s-0.2-0.3-0.2-0.5s0.1-0.3,0.2-0.5c0.1-0.1,0.3-0.2,0.3-0.2c0.1,0,0.2,0,0.3,0.1s0.2,0.2,0.2,0.3
			s0.1,0.3,0.1,0.5s0,0.3-0.1,0.6c-0.1,0.1-0.1,0.3-0.2,0.3c0.1,0,0,0-0.2,0c-0.1,0-0.3,0-0.3-0.1C38.9,77.4,38.8,77.3,38.8,77.2
			 M38.2,77.5H38V76c-0.1,0.1-0.1,0.1-0.2,0.2c-0.1,0-0.2,0.1-0.2,0.1v-0.2c0.1-0.1,0.2-0.1,0.3-0.2s0.2-0.2,0.2-0.3h0.2L38.2,77.5
			L38.2,77.5z M35.5,76.8h0.8c0-0.1,0-0.2-0.1-0.3c-0.1-0.1-0.2-0.1-0.3-0.1s-0.2,0-0.3,0.1C35.6,76.6,35.5,76.7,35.5,76.8
			 M36.3,77.2h0.2c0,0.1-0.1,0.2-0.2,0.3c-0.1,0.1-0.2,0.1-0.3,0.1s-0.3-0.1-0.5-0.2c-0.1-0.1-0.1-0.3-0.1-0.5s0.1-0.3,0.2-0.5
			c0.1-0.1,0.3-0.2,0.5-0.2c0.1,0,0.3,0.1,0.3,0.2c0.1,0.1,0.2,0.3,0.2,0.5l0,0h-0.9c0,0.1,0,0.3,0.1,0.3c0.1,0.1,0.2,0.1,0.3,0.1
			S36.3,77.3,36.3,77.2C36.2,77.3,36.3,77.2,36.3,77.2 M34.9,77h0.2c0,0.2-0.1,0.3-0.2,0.3c0,0.1-0.2,0.1-0.3,0.1
			c-0.2,0-0.3-0.1-0.3-0.2s-0.2-0.3-0.2-0.5s0-0.3,0.1-0.3c0-0.1,0.1-0.2,0.2-0.3c0.1-0.1,0.2-0.1,0.3-0.1c0.2,0,0.3,0,0.3,0.1
			s0.2,0.2,0.2,0.3H35c0-0.1-0.1-0.2-0.1-0.2s-0.1-0.1-0.2-0.1c-0.1,0-0.2,0-0.3,0.1s-0.1,0.2-0.1,0.3c0,0.1,0,0.3,0.1,0.3
			s0.2,0.1,0.3,0.1C34.8,77.2,34.9,77.2,34.9,77C34.9,77.3,34.9,77.2,34.9,77 M32.8,77.5v-1.4H33v0.2c0.1-0.1,0.3-0.2,0.3-0.2
			c0.1,0,0.2,0,0.2,0c0.1,0,0.1,0.1,0.2,0.1c0,0,0.1,0.1,0.1,0.2c0,0,0,0.1,0,0.2v0.9h-0.2v-0.8c0-0.1,0-0.2,0-0.2l-0.1-0.1
			c0,0-0.1,0-0.2,0c-0.1,0-0.2,0-0.3,0.1s-0.1,0.2-0.1,0.3v0.6C32.9,77.5,32.8,77.5,32.8,77.5z M32.2,76.2h0.2v1.4h-0.2V76.2z
			 M32.2,75.8h0.2v0.3h-0.2V75.8z M30.5,76.9h0.2c0,0.1,0,0.2,0.1,0.2c0,0.1,0.1,0.1,0.2,0.1s0.2,0.1,0.3,0.1s0.2,0,0.3,0
			s0.1-0.1,0.2-0.1c0,0,0-0.1,0-0.2s0-0.1,0-0.2c0,0-0.1-0.1-0.2-0.1c0,0-0.2-0.1-0.3-0.1c-0.2,0-0.3-0.1-0.3-0.1
			c-0.1,0-0.2-0.1-0.2-0.2s-0.2,0.1-0.2,0s0-0.2,0.1-0.3c0.1-0.1,0.1-0.1,0.2-0.2c0.1,0,0.2-0.1,0.3-0.1s0.3,0,0.3,0.1
			c0.1,0,0.2,0.1,0.2,0.2c0.3,0,0.3,0.1,0.3,0.2h-0.2c0-0.1-0.1-0.2-0.1-0.3c-0.2-0.1-0.3-0.1-0.3-0.1s-0.3,0-0.3,0.1
			C31,76,31,76,31,76.1s0,0.1,0.1,0.2c0,0,0.2,0.1,0.3,0.1c0.2,0.1,0.3,0.1,0.3,0.1c0.1,0,0.2,0.1,0.2,0.2C32,76.9,32,77,32,77.2
			c0,0.1,0,0.2-0.1,0.3c-0.1,0.1-0.1,0.2-0.2,0.2c-0.3,0.1-0.3,0.1-0.5,0.1s-0.3,0-0.3-0.1c-0.1,0-0.2-0.1-0.3-0.2
			C30.5,77.2,30.5,77,30.5,76.9"/>
		<path class="st7" d="M56.3,86.1H57l-0.1,0.7h-0.7L56.3,86.1 M55.1,86.1h0.7l-0.1,0.7H55L55.1,86.1z M53.7,86.1h0.7l-0.1,0.7h-0.7
			L53.7,86.1z M50.9,86l0.7-0.1c0.1,0.1,0.1,0.2,0.2,0.3c0.1,0.1,0.2,0.1,0.3,0.1s0.3,0,0.3-0.1c0.1,0,0.1-0.1,0.1-0.2l0,0
			c0,0-0.1-0.1-0.3-0.1c-0.3-0.1-0.7-0.2-0.8-0.3c-0.2-0.1-0.2-0.3-0.2-0.5c0-0.1,0.1-0.3,0.2-0.5c0.2-0.2,0.5-0.3,0.9-0.3
			c0.3,0,0.6,0.1,0.8,0.2s0.3,0.3,0.3,0.5l-0.6,0.1c0-0.1-0.1-0.2-0.2-0.2c0,0-0.1,0-0.3,0s-0.2,0-0.2,0C52,84.9,52,85,52,85.1
			s0,0.1,0.1,0.2c0,0,0.2,0.1,0.3,0.1c0.3,0.1,0.6,0.2,0.7,0.3c0.2,0.1,0.2,0.3,0.2,0.5c0,0.1-0.1,0.5-0.3,0.6
			c-0.2,0.2-0.5,0.3-0.9,0.3s-0.7-0.1-0.9-0.2C51.1,86.6,51,86.3,50.9,86 M48.6,84.3h0.7l0.2,1.2c0,0.3,0.1,0.6,0.1,0.7
			c0.1-0.3,0.2-0.5,0.3-0.8l0.6-1h0.7L49.6,87c-0.1,0.2-0.2,0.3-0.3,0.5c-0.1,0.1-0.2,0.2-0.3,0.2c-0.1,0.1-0.2,0.1-0.3,0.1
			s-0.3,0-0.5-0.1l0.1-0.5c0.1,0,0.2,0,0.2,0c0.2,0,0.3-0.2,0.5-0.5L48.6,84.3z M47.3,85.5c0,0-0.1,0-0.2,0c-0.3,0-0.6,0.1-0.7,0.2
			c-0.1,0.1-0.1,0.1-0.1,0.2s0,0.2,0.1,0.2c0.1,0.1,0.1,0.1,0.2,0.1c0.1,0,0.2,0,0.3-0.1s0.2-0.1,0.2-0.2
			C47.1,86,47.3,85.9,47.3,85.5L47.3,85.5z M46.7,85L46,84.9c0.1-0.2,0.2-0.3,0.3-0.5c0.2-0.1,0.5-0.2,0.8-0.2s0.6,0.1,0.7,0.2
			c0.2,0.1,0.2,0.3,0.2,0.5s0,0.2,0,0.2c0,0.1-0.1,0.3-0.1,0.7c-0.1,0.3-0.1,0.5-0.1,0.7c0,0.1,0,0.2,0.1,0.3h-0.7
			c0-0.1,0-0.2,0-0.3c-0.1,0.1-0.2,0.2-0.3,0.3c-0.1,0.1-0.3,0.1-0.3,0.1c-0.2,0-0.3-0.1-0.5-0.2c-0.1-0.1-0.2-0.3-0.2-0.5
			s0.1-0.3,0.2-0.6c0.2-0.1,0.3-0.2,0.8-0.3c0.3,0,0.6-0.1,0.7-0.1c0-0.1,0-0.2,0-0.2c0-0.1,0-0.1-0.1-0.2c-0.2,0.1-0.2,0.1-0.3,0.1
			C47,84.9,46.9,84.9,46.7,85C46.7,84.9,46.7,84.9,46.7,85 M44.7,86.7h-0.6L44,85.1l-0.8,1.6h-0.6l-0.3-2.5h0.5l0.2,1.6l0.8-1.6h0.6
			l0.1,1.6l0.8-1.6H46L44.7,86.7z M40.8,86.7l0.8-3.4h0.7l-0.7,3.4H40.8z M39.8,85.5c0,0-0.1,0-0.2,0c-0.3,0-0.6,0.1-0.7,0.2
			s-0.1,0.1-0.1,0.2s0,0.2,0.1,0.2c0,0.1,0.1,0.1,0.2,0.1c0.1,0,0.2,0,0.3-0.1s0.2-0.1,0.2-0.2C39.7,86,39.8,85.9,39.8,85.5
			L39.8,85.5z M39.1,85l-0.7-0.1c0.1-0.2,0.2-0.3,0.3-0.5c0.2-0.1,0.3-0.2,0.8-0.2c0.3,0,0.6,0.1,0.7,0.2c0.2,0.1,0.2,0.3,0.2,0.5
			s0,0.2,0,0.2c0,0.1-0.1,0.3-0.1,0.7c-0.1,0.3-0.1,0.5-0.1,0.7c0,0.1,0,0.2,0.1,0.3h-0.7c0-0.1,0-0.2-0.1-0.3
			c-0.1,0.1-0.2,0.2-0.3,0.3c-0.1,0.1-0.3,0.1-0.3,0.1c-0.2,0-0.3-0.1-0.5-0.2c-0.1-0.1-0.2-0.3-0.2-0.5s0.1-0.3,0.2-0.6
			c0.2-0.1,0.3-0.2,0.8-0.3c0.3,0,0.6-0.1,0.7-0.1c0-0.1,0-0.2,0-0.2c0-0.1,0-0.1-0.1-0.2c-0.1,0.1-0.2,0.1-0.3,0.1
			C39.3,84.9,39.2,84.9,39.1,85C39.2,84.9,39.2,84.9,39.1,85 M35.8,86.1h0.7l-0.2,0.5c-0.1,0.3-0.2,0.6-0.3,0.7s-0.3,0.2-0.6,0.2
			l0.1-0.3c0.1,0,0.2-0.1,0.3-0.1c0.1-0.1,0.1-0.2,0.1-0.3h-0.3L35.8,86.1z M33.2,84.3h0.7l-0.3,1.5c0,0.2-0.1,0.3-0.1,0.3
			c0,0.1,0,0.1,0.1,0.2s0.1,0.1,0.2,0.1c0.1,0,0.1,0,0.2,0c0.1,0,0.1-0.1,0.2-0.1s0.1-0.1,0.2-0.2c0-0.1,0.1-0.1,0.1-0.2
			s0.1-0.2,0.1-0.3l0.2-1.1h0.7L35,87h-0.6l0.1-0.3C34.2,87,33.9,87,33.6,87c-0.2,0-0.3-0.1-0.5-0.2c-0.1-0.1-0.2-0.3-0.2-0.5
			c0-0.1,0-0.3,0.1-0.5L33.2,84.3z M31.8,85.3c0-0.2,0-0.3-0.2-0.3c-0.1-0.1-0.2-0.2-0.3-0.2s-0.3,0.1-0.5,0.1
			c-0.1,0.1-0.2,0.2-0.3,0.3c-0.1,0.2-0.1,0.3-0.1,0.5s0.1,0.3,0.1,0.3c0.1,0.1,0.2,0.2,0.3,0.2s0.3-0.1,0.5-0.2
			C31.7,85.9,31.8,85.5,31.8,85.3 M29.9,85.8c0-0.5,0.1-0.9,0.3-1c0.3-0.3,0.6-0.3,1-0.3c0.3,0,0.7,0.1,0.9,0.3
			c0.2,0.2,0.3,0.5,0.3,0.8s-0.1,0.8-0.3,1c-0.3,0.3-0.6,0.5-1,0.5c-0.2,0-0.3,0-0.6-0.1c-0.2-0.1-0.3-0.2-0.3-0.3
			C30,86.1,29.9,86,29.9,85.8 M27.4,84.3h0.7l0.2,1.2c0,0.3,0.1,0.6,0.1,0.7c0.1-0.3,0.2-0.5,0.3-0.8l0.6-1h0.8L28.6,87
			c-0.1,0.2-0.2,0.3-0.3,0.5c-0.1,0.1-0.2,0.2-0.3,0.2c-0.1,0.1-0.2,0.1-0.3,0.1c-0.1,0-0.3,0-0.5-0.1l0.1-0.6c0.1,0,0.2,0,0.3,0
			c0.2,0,0.3-0.2,0.5-0.5L27.4,84.3z M23.7,86.7H23l0.7-3.4h0.7L24,84.5c0.2-0.1,0.3-0.2,0.3-0.3c0.1-0.1,0.3-0.1,0.3-0.1
			c0.2,0,0.3,0.1,0.5,0.2c0.1,0.1,0.2,0.3,0.2,0.5c0,0.1,0,0.3-0.1,0.5l-0.3,1.5h-0.7l0.3-1.5c0-0.2,0-0.3,0-0.3
			c0-0.1,0-0.2-0.1-0.2c-0.1-0.1-0.1-0.1-0.2-0.1s-0.2,0-0.3,0.1c-0.1,0.1-0.2,0.2-0.3,0.3c0,0.1-0.1,0.3-0.2,0.6v1.1L23.7,86.7
			L23.7,86.7z M21.7,84.9l0.1-0.5h0.3l0.1-0.3l0.8-0.5l-0.2,0.9h0.3L23,84.9h-0.3l-0.2,1c0,0.2-0.1,0.3-0.1,0.3v0.1c0,0,0.1,0,0.2,0
			c0,0,0.1,0,0.2,0l-0.1,0.3c-0.1,0-0.2,0-0.3,0c-0.2,0-0.3,0-0.5-0.1c-0.1-0.1-0.2-0.2-0.2-0.3c0-0.1,0-0.3,0.1-0.5l0.2-0.9
			C22,84.9,21.7,84.9,21.7,84.9z M20.6,84.3h0.7l-0.5,2.5h-0.7L20.6,84.3z M20.9,83.4h0.7L21.4,84h-0.7L20.9,83.4z M18.9,86.7h-0.7
			l-0.1-2.5L17,86.7h-0.7l-0.1-3.4h0.7v2.4l1.1-2.4h0.8l0.1,2.4l1.1-2.4h0.7L18.9,86.7z"/>
		<path class="st6" d="M60.5,18.1c0.3,0,0.6,0.1,0.8,0.2c0.3,0.1,0.5,0.3,0.7,0.5s0.3,0.3,0.5,0.7c0.1,0.3,0.2,0.5,0.2,0.8
			s-0.1,0.6-0.2,0.8c-0.1,0.3-0.3,0.5-0.5,0.7c-0.1,0.2-0.3,0.3-0.7,0.5c-0.3,0.1-0.5,0.2-0.8,0.2s-0.6-0.1-0.8-0.2
			c-0.3-0.1-0.5-0.3-0.7-0.5s-0.3-0.3-0.5-0.7c-0.1-0.3-0.2-0.5-0.2-0.8s0.1-0.6,0.2-0.8c0.1-0.3,0.3-0.5,0.5-0.7s0.3-0.3,0.7-0.5
			S60.2,18.1,60.5,18.1 M60.5,18.5c-0.2,0-0.5,0-0.7,0.1s-0.3,0.2-0.6,0.3c-0.2,0.2-0.3,0.3-0.3,0.6c-0.1,0.2-0.1,0.5-0.1,0.7
			s0,0.5,0.1,0.7s0.2,0.3,0.3,0.6c0.2,0.2,0.3,0.3,0.6,0.3s0.3,0.1,0.7,0.1c0.2,0,0.5,0,0.7-0.1s0.3-0.2,0.6-0.3
			c0.2-0.2,0.3-0.3,0.3-0.6c0.1-0.2,0.1-0.3,0.1-0.7s0-0.5-0.1-0.7s-0.2-0.3-0.3-0.6c-0.2-0.2-0.3-0.3-0.6-0.3S60.7,18.5,60.5,18.5
			 M59.7,19h0.9c0.3,0,0.6,0.1,0.8,0.2s0.3,0.3,0.3,0.5s0,0.3-0.1,0.3c-0.2,0.1-0.3,0.2-0.5,0.2l0.5,1H61l-0.5-1h-0.3v0.9h-0.5
			C59.7,21.3,59.7,19,59.7,19z M60.2,19.3V20h0.3c0.2,0,0.3,0,0.3-0.1c0.1-0.1,0.1-0.2,0.1-0.3c0-0.1,0-0.2-0.1-0.3
			c-0.1-0.1-0.2-0.1-0.3-0.1L60.2,19.3L60.2,19.3z"/>
	</g>
	<g>
		<g>
			<path class="st8" d="M181.1,76.9v12.8h-1.6v-9.6l-4.3,9.6H174l-4.3-9.6v9.6H168V76.9h1.8l4.8,10.6l4.8-10.6H181.1z"/>
			<path class="st8" d="M191.5,86.8h-5.6l-1,2.9h-1.7l4.7-12.9h1.9l4.6,12.9h-1.7L191.5,86.8z M191,85.5l-2.3-6.5l-2.3,6.5H191z"/>
			<path class="st8" d="M206.5,89.6h-1.6l-6.8-10.2v10.2h-1.6V76.8h1.6l6.8,10.2V76.8h1.6V89.6z"/>
			<path class="st8" d="M216.9,83.2c-0.7,0.7-1.8,1-3.4,1H211v5.4h-1.6V76.8h4.2c1.5,0,2.6,0.3,3.3,1c0.8,0.7,1.1,1.6,1.1,2.7
				C218,81.7,217.6,82.5,216.9,83.2z M215.6,82.3c0.4-0.4,0.7-1,0.7-1.7c0-1.6-1-2.3-2.8-2.3H211V83h2.5
				C214.5,82.9,215.2,82.7,215.6,82.3z"/>
			<path class="st8" d="M227.7,86.8H222l-1,2.9h-1.7l4.7-12.9h1.9l4.6,12.9h-1.7L227.7,86.8z M227.3,85.5L225,79l-2.3,6.5H227.3z"/>
			<path class="st8" d="M240.2,77.6c1,0.5,1.8,1.3,2.3,2.3s0.8,2.1,0.8,3.5c0,1.3-0.3,2.4-0.8,3.5c-0.5,1-1.3,1.7-2.3,2.3
				s-2.3,0.8-3.6,0.8h-4V77h4C237.9,76.8,239.1,77.1,240.2,77.6z M240.4,87c0.9-0.9,1.3-2.1,1.3-3.7s-0.4-2.9-1.3-3.7
				c-0.9-0.9-2.2-1.4-3.8-1.4h-2.3v10.2h2.3C238.2,88.3,239.5,87.8,240.4,87z"/>
			<path class="st8" d="M253.2,86.8h-5.6l-1,2.9h-1.7l4.7-12.9h1.9l4.6,12.9h-1.7L253.2,86.8z M252.8,85.5l-2.3-6.5l-2.3,6.5H252.8z
				"/>
		</g>
		<g>
			<path class="st3" d="M96.8,52.5l9.1-6.9c2.3-1.8,3.2-2.9,3.2-4.4c0-1.6-1.1-2.5-2.7-2.5s-2.9,1-4.8,3.2L96.9,38
				c2.6-3.4,5.2-5.2,9.9-5.2c5.3,0,9,3.2,9,7.7v0.1c0,3.9-2,5.9-5.6,8.5L106,52h10v5.5H96.8V52.5z"/>
			<path class="st3" d="M116.6,54.2l3.9-4.5c1.9,1.7,3.8,2.6,5.9,2.6c2.2,0,3.5-1.1,3.5-2.8v-0.1c0-1.8-1.5-2.8-3.6-2.8
				c-1.5,0-2.7,0.5-3.9,1.2l-4-2.3l0.7-12.3h16.2v5.6h-10.9l-0.2,3.7c1.1-0.5,2.3-0.9,3.9-0.9c4.4,0,8.3,2.4,8.3,7.7v0.1
				c0,5.4-4.1,8.6-10,8.6C122.1,58,119.1,56.5,116.6,54.2z"/>
			<path class="st3" d="M146.7,33.2h6.7v9.1h8.6v-9.1h6.7v24.3H162v-9.2h-8.6v9.2h-6.7V33.2z"/>
			<path class="st3" d="M198.9,46.9V33.2h6.8v13.5c0,3.5,1.8,5.2,4.5,5.2s4.5-1.6,4.5-5V33.2h6.8v13.5c0,7.8-4.5,11.3-11.4,11.3
				C203.3,58,198.9,54.5,198.9,46.9z"/>
			<path class="st3" d="M224.1,33.2h11.5c3.7,0,6.3,1,7.9,2.6c1.4,1.4,2.2,3.3,2.2,5.7v0.1c0,3.7-2,6.2-5,7.5l5.8,8.5h-7.7l-4.9-7.4
				h-3v7.4h-6.7V33.2H224.1z M235.3,44.9c2.3,0,3.6-1.1,3.6-2.9l0,0c0-1.9-1.4-2.9-3.6-2.9h-4.4V45L235.3,44.9L235.3,44.9z"/>
			<path class="st3" d="M255.9,33.2h6.7v18.4h11.8v5.9h-18.5V33.2z"/>
			<path class="st3" d="M276.1,33.2h6.7v24.3h-6.7V33.2z"/>
			<path class="st3" d="M285.9,33.2h19.4v5.9h-12.7v4.1h11.5v5.6h-11.5v8.7h-6.7L285.9,33.2L285.9,33.2z"/>
			<path class="st3" d="M307,33.2h19.5v5.7h-12.9v3.7h11.7V48h-11.7v3.9h13v5.7H307V33.2z"/>
			<g>
				<path class="st8" d="M168.5,19.7L168.5,19.7c0-3,2.3-5.5,5.4-5.5c1.9,0,3.1,0.7,4.2,1.7l-0.8,0.9c-0.9-0.9-1.9-1.5-3.3-1.5
					c-2.4,0-4.1,1.9-4.1,4.4l0,0c0,2.5,1.8,4.4,4.1,4.4c1.5,0,2.4-0.6,3.4-1.5l0.8,0.8c-1.1,1.1-2.3,1.9-4.3,1.9
					C170.8,25.2,168.5,22.8,168.5,19.7z"/>
				<path class="st8" d="M178.8,19.7L178.8,19.7c0-3,2.2-5.5,5.4-5.5s5.4,2.5,5.4,5.5l0,0c0,2.9-2.2,5.5-5.4,5.5
					S178.8,22.7,178.8,19.7z M188.4,19.7L188.4,19.7c0-2.4-1.8-4.4-4.2-4.4s-4.2,1.9-4.2,4.4l0,0c0,2.4,1.8,4.4,4.2,4.4
					C186.7,24.1,188.4,22.1,188.4,19.7z"/>
				<path class="st8" d="M191.6,14.4h3.7c3.3,0,5.7,2.3,5.7,5.3l0,0c0,3-2.3,5.3-5.7,5.3h-3.7V14.4z M192.8,15.5v8.4h2.5
					c2.7,0,4.4-1.8,4.4-4.2l0,0c0-2.4-1.7-4.2-4.4-4.2C195.3,15.5,192.8,15.5,192.8,15.5z"/>
				<path class="st8" d="M202.9,14.4h7.7v1.1h-6.5v3.6h5.8v1.1h-5.8v3.7h6.6V25h-7.8V14.4z"/>
				<path class="st8" d="M212.5,14.4h1.1l6.7,8.5v-8.5h1.2V25h-1l-6.9-8.7V25h-1.2L212.5,14.4L212.5,14.4z"/>
				<path class="st8" d="M227.8,14.3h1.1l4.9,10.7h-1.3l-1.2-2.8h-5.8l-1.3,2.8H223L227.8,14.3z M230.8,21.1l-2.4-5.4l-2.4,5.4
					H230.8z"/>
				<path class="st8" d="M235.3,14.4h1.2l3.9,5.8l3.9-5.8h1.2V25h-1.2v-8.6l-3.9,5.7h-0.1l-3.9-5.7V25h-1.2V14.4H235.3z"/>
				<path class="st8" d="M247.9,14.4h7.7v1.1h-6.5v3.6h5.8v1.1h-5.8v3.7h6.6V25h-7.8V14.4z"/>
			</g>
			<polygon class="st8" points="338.6,70.5 85.4,70.5 85.4,18.9 162.2,18.9 162.2,20 86.5,20 86.5,69.4 337.5,69.4 337.5,20 
				260.7,20 260.7,18.9 338.6,18.9 			"/>
			<g>
				<path class="st3" d="M170.7,45.7L170.7,45.7c0-7.3,5.8-13.2,13.6-13.2s13.5,5.8,13.5,13v0.1c0,7.2-5.8,13.1-13.6,13.1
					C176.5,58.7,170.7,52.9,170.7,45.7z M193.2,45.7L193.2,45.7c0-4.8-3.6-8.8-9-8.8s-8.9,3.9-8.9,8.6v0.1c0,4.6,3.7,8.7,9,8.7
					S193.2,50.3,193.2,45.7z"/>
				<rect x="184" y="36.2" class="st3" width="0.6" height="3.5"/>
				<rect x="184" y="51.5" class="st3" width="0.6" height="3.5"/>
				<rect x="174.9" y="45.3" class="st3" width="3.5" height="0.6"/>
				<rect x="190.2" y="45.3" class="st3" width="3.5" height="0.6"/>
				<g>
					
						<rect x="182.3" y="43.6" transform="matrix(0.7071 -0.7071 0.7071 0.7071 23.6027 144.4777)" class="st3" width="7.8" height="0.3"/>
					
						<rect x="183.3" y="42.7" transform="matrix(0.7071 -0.7071 0.7071 0.7071 22.0881 142.8376)" class="st3" width="0.3" height="4.1"/>
					<path class="st3" d="M183.9,45.6c0,0.2,0.2,0.4,0.4,0.4s0.4-0.2,0.4-0.4s-0.2-0.4-0.4-0.4C184.1,45.2,183.9,45.4,183.9,45.6z"
						/>
				</g>
			</g>
		</g>
	</g>
</g>
</svg>
